# xmcd CD database file
#
# Track frame offsets:
#	150
#	14032
#	24662
#	34727
#	47227
#	60188
#	72650
#	85152
#	97948
#	108829
#	121352
#	133730
#	144149
#	154366
#	164921
#	175633
#	186451
#	197926
#	210746
#	222755
#	234302
#	246213
#	257260
#	269902
#
# Disc length: 3773 seconds
#
# Revision: 0
# Processed by: cddbd v1.5.2PL0 Copyright (c) Steve Scherf et al.
# Submitted via: CDex 1.51
#
DISCID=630ebb18
DTITLE=Jimmy Reed - Charly Blues Masterworks
DYEAR=2009
DGENRE=Blues
TTITLE0=You don't have to go
TTITLE1=I ain't got you
TTITLE2=Ain't that lovin' you
TTITLE3=My first plea
TTITLE4=You got me dizzy
TTITLE5=Honest I do
TTITLE6=Little rain
TTITLE7=The sun is shining
TTITLE8=Down in Virginia
TTITLE9=Go on to school
TTITLE10=I'm gonna get my baby
TTITLE11=Going to New York
TTITLE12=I wanna be loved
TTITLE13=Take out some insurance
TTITLE14=Baby, what do you want me to do?
TTITLE15=Found love
TTITLE16=Hush, hush
TTITLE17=Big Boss man
TTITLE18=Bright lights, big city
TTITLE19=Close together
TTITLE20=I'm nervous
TTITLE21=Good lover
TTITLE22=Shame, shame, shame
TTITLE23=I'm going upside your head
EXTD=YEAR: 2009
EXTT0=
EXTT1=
EXTT2=
EXTT3=
EXTT4=
EXTT5=
EXTT6=
EXTT7=
EXTT8=
EXTT9=
EXTT10=
EXTT11=
EXTT12=
EXTT13=
EXTT14=
EXTT15=
EXTT16=
EXTT17=
EXTT18=
EXTT19=
EXTT20=
EXTT21=
EXTT22=
EXTT23=
PLAYORDER=
